<?xml version="1.0" encoding="utf-8"?>
<!-- Generator: Adobe Illustrator 23.1.0, SVG Export Plug-In . SVG Version: 6.00 Build 0)  -->
<svg version="1.1" id="Layer_1" xmlns="http://www.w3.org/2000/svg" xmlns:xlink="http://www.w3.org/1999/xlink" x="0px" y="0px"
	 viewBox="0 0 800 800" style="enable-background:new 0 0 800 800;" xml:space="preserve">
<style type="text/css">
	.st0{fill:none;stroke:#000000;stroke-linecap:round;stroke-miterlimit:10;}
	.st1{fill:#606060;}
</style>
<path class="st0" d="M444.89,665.97"/>
<path class="st0" d="M465.81,659.55c-0.77,2.45-2.24,8.33-0.32,15.37c1.45,5.31,4.2,8.94,5.86,10.81"/>
<path class="st0" d="M443.09,652.41c-0.96,1.5-4.29,7.09-3.36,14.7c0.97,7.86,5.82,12.55,7.11,13.72"/>
<path class="st0" d="M423.82,652.71c-0.7,1.09-2.9,4.84-2.27,9.85c0.84,6.66,6.01,10.16,6.79,10.67"/>
<path class="st0" d="M465.81,659.55c1.27-1.39,3.64-3.61,7.26-5.09c5.4-2.21,10.24-1.41,12.14-0.99"/>
<path class="st0" d="M443.09,652.41c0.45-1.42,2.33-6.84,8.01-10.31c6.67-4.07,13.47-2.34,14.63-2.02"/>
<path class="st0" d="M454.14,648.16"/>
<path class="st0" d="M423.82,652.71c0.77-2.44,2.74-7.54,7.58-12.13c4.68-4.43,9.66-6.15,12.13-6.82"/>
<path class="st0" d="M341.58,526.83c-0.67,4.32-2.66,13.23-9.47,22.04c-6.17,7.98-13.35,12.07-17.24,13.94"/>
<path class="st0" d="M341.21,532.2"/>
<path class="st0" d="M307.07,521.69c0.01,4.51-0.52,10.92-3,18.09c-4.06,11.74-11.17,19.25-15.17,22.9"/>
<path class="st0" d="M275.14,523.84c0.74,3.2,1.97,10.42-0.63,18.97c-2.56,8.42-7.48,13.68-9.86,15.94"/>
<path class="st0" d="M311.2,499.91c3.74,0.71,14.18,3.22,22.43,12.58c4.68,5.32,6.88,10.83,7.95,14.34"/>
<path class="st0" d="M276.79,501.13c2.78-0.05,10.47,0.16,18.19,5.31c8,5.33,11.13,12.69,12.09,15.26"/>
<path class="st0" d="M253.14,510.96c6.36-2.4,13.24-1.22,17.58,3.05c3.7,3.63,4.29,8.26,4.42,9.83"/>
<path class="st0" d="M231.32,538.26c12.28-6.18,36.65-16.42,68.97-16.67c32.71-0.26,57.48,9.83,69.85,15.89"/>
<path class="st0" d="M350.31,552.66c-22.21,10.97-43.23,11.17-53.81,10.61c-18.51-0.98-62.68-7.37-65.18-25.01
	c-1.99-14.04,22.96-31.5,45.47-37.14c44.48-11.15,95.22,19.87,93.35,36.35C369.49,543.18,362.59,546.59,350.31,552.66z"/>
<path class="st0" d="M394.39,650.28c11.71-1.56,32.05-2.75,55.96,3.94c24,6.71,40.82,18.34,50.02,25.77"/>
<path class="st0" d="M136.58,582.22"/>
<path class="st0" d="M406.39,639.82c14.62-8.67,30.47-6.9,37.14-6.06c9.03,1.13,26.76,5.05,41.68,19.71
	c3.77,3.7,18.99,18.65,15.16,26.53c-5.04,10.36-38.87,6.53-60.63-1.52c-18.32-6.78-18.54-13.01-37.14-18.19
	c-3.02-0.84-8.29-2.14-9.18-5.58C391.83,648.59,405.33,640.45,406.39,639.82z"/>
<path class="st1" d="M342.73,642.09"/>
<path class="st0" d="M435.19,349.59c1.08,0.52,27.21,12.65,47.75-2.27c12.21-8.87,21.21-26.39,15.92-34.11
	c-8.55-12.45-51.86,4.3-53.81-1.52c-0.83-2.47,7.17-4.95,12.13-12.88c8.99-14.4,4.11-40.55-8.34-46.23
	c-16.27-7.42-48.09,18.93-47.75,40.93c0.19,12.18,10.23,21.86,9.09,22.74c-2.07,1.59-26.11-37.57-40.17-33.35
	c-10.36,3.11-15.96,30.01-6.06,40.17c10.61,10.89,37.45,0.94,38.17,3.89c0.67,2.77-24.42,5.5-30.59,20.36
	c-5.25,12.65,3.72,32.84,16.67,37.14C409.19,391.41,432.5,353.92,435.19,349.59c3.8-6.11,18-28.87,9.85-37.89
	c-6.72-7.44-24.84-3.52-34.86,4.55c-1.96,1.58-5.96,4.88-8.06,10.71c-1.79,4.96-2.85,13.34,1.24,18.09
	C410.29,353.1,424.14,343.03,435.19,349.59c13.23,7.85,14.24,34.99,7.58,53.81c-8.81,24.9-31.26,35.82-38.65,39.41
	c-28.47,13.85-72.83,16.13-84.13-4.55c-7.12-13.03-1.37-35.65,13.64-43.96c17.13-9.47,42.33,1.91,49.26,17.43
	c9.47,21.18-20.3,38.35-12.88,68.21c4.54,18.29,21.41,34.81,40.17,37.89c2.72,0.45,16.81,2.76,29.56-6.06
	c2.35-1.62,13.06-9.04,14.4-20.46c1.94-16.52-16.36-36.02-32.59-36.38c-26.08-0.57-51.75,48.17-51.54,87.92
	c0.1,18.05,5.5,28.82,7.58,32.59c1.84,3.34,15.68,27.49,42.44,30.32c5.1,0.54,31.05,2.45,40.17-15.16
	c6.4-12.36,2.58-30.63-8.34-37.14c-8.13-4.85-19.41-2.82-27.28,1.52c-21.87,12.04-17.16,41.74-33.65,110.54
	c-6.47,27.01-10.24,42.73-19.4,62.22c-16.25,34.56-38.66,57.99-54.57,72.04"/>
</svg>
