<?xml version="1.0" encoding="UTF-8"?>
<svg id="_图层_1" xmlns="http://www.w3.org/2000/svg" xmlns:xlink="http://www.w3.org/1999/xlink" version="1.1" viewBox="0 0 355.1 339.1">
  <!-- Generator: Adobe Illustrator 29.0.1, SVG Export Plug-In . SVG Version: 2.1.0 Build 192)  -->
  <defs>
    <style>
      .st0 {
        fill: none;
      }

      .st1 {
        fill: #5f8738;
      }

      .st2, .st3 {
        fill: #0d0605;
      }

      .st4 {
        fill: #f9cd3f;
      }

      .st5 {
        fill: #e1a1c6;
      }

      .st6 {
        fill: #fff;
      }

      .st3 {
        stroke: #050001;
        stroke-miterlimit: 10;
        stroke-width: .5px;
      }

      .st7 {
        fill: #507f2e;
      }

      .st8 {
        clip-path: url(#clippath);
      }
    </style>
    <clipPath id="clippath">
      <rect class="st0" x="-21" y="-57.4" width="392.7" height="424"/>
    </clipPath>
  </defs>
  <g class="st8">
    <rect class="st7" x="-16.3" y="-57.4" width="383.5" height="424"/>
    <path class="st6" d="M172.3,150c.7.8,1.4,1.5,2.2,2.2,2,2,4.1,4.1,6.1,6.1,1.2,1.2,2.5,2.5,4.2,3,2.6.8,5.4-.6,7.1-2.7,1.7-2.1,2.4-4.8,2.8-7.4,1.2-6.6,1-14.3-3.8-19.1-4.6-4.5-17.5-9.6-22-2-2.1,3.6-1.6,11.3,0,14.9.8,1.9,2.1,3.5,3.5,5Z"/>
    <g>
      <path class="st1" d="M102.5,350c.9-8.7,1-17.6,3.6-25.9,1.3-4.3,2.5-9,5.6-12.7.8.4-.6,1.8.8,1.9,1.1,0,1.4-.9,1.4-1.7,0-1.2.8-2.6-.4-3.7-.5.5-.9,1-1.4,1.5-1.5-5.9,2.3-10.3,4.8-14.9,1.1-2,2.4-4,3.2-6.1,1.8-4.3,4.3-7.2,8.6-9.2,3.1-1.4,3-5.3,4.5-8,1.8-3.2,1.2-7.5,4.9-10.1,1.2-.8-.9-4.3,1.1-6.4,1.1-1.1.9-2.8,2.7-4,2.2-1.4,1.4-4.9,2.6-7.2.9.2.7,2,1,1.4,1-1.7,3.8-2.3,3.8-2.8-.2-2.7,2.5-4.1,2.5-6.4,0-1.4.5-1.7,1.7-1.8,1.2,0,1.6.6,1.8,1.8.7,3.5-1.5,5.7-3.6,7.6-1.3,1.1-2.6,1.6-1.1,3.5.8,1.1.2,2.4-.8,3.3-2.2,2-2.8,4.5-3.6,7.2-.8,2.9-1.9,6.3-4.1,8.5-1.9,1.9-1.1,4.1-2.2,6-4.7,7.7-6.7,16.4-8.5,25-.9,4.6-2.3,8.6-4.4,12.7-1.1,2.1-.8,4.9-1.6,7.3-1.6,4.9-2.6,9.9-3.6,15-.4,1.9-1.4,2.4-3,2.4-4.3,1.5.3,5.5-2.2,7.7-.5.4-.4,2,1.2,2,.1,0,.2,0,.4,0,1.1,4.1-.3,8.2-.5,12.3-.2,3.3-.5,6.5-.6,9.8,0,1.7.6,3.9-2.9,2.5-3.3-1.3-5.4,2.2-4.4,6.7h-1.5c-3.4-4.3-4.7-9.3-5.2-14.7,2.1-3.3-.2-7,1-10.4.2-.5-1-.3-1.5-.5Z"/>
      <path class="st1" d="M302.7,264.6c-.6,1.2-.9,2.5-.6,4.2,1.9-1.2,4.5-.5,6.1-2.5.4-.5,1.2-.5,1.6,0,.5.7.3,1.5-.4,1.9-2.5,1.5-4.4,3.2-5.5,6.2-.4,1.3-3.5,1.7-5.3,2.5,0-.8,0-2.1-1.3-1.6-1.9.8-1,3-1.4,4.4-.4,1.4,1.3,1.2,2.4.8,1.8,2.7,2.1,5.3,0,8-.4.5-.4,1.5-1.3,1.5-2.7,0-2.9,1.2-1.4,3.1.5.6.5,1.5,0,2-4.1,3.4-2.9,8.5-3.8,12.8-.8,3.7-.8,7.5-2.3,11-1.6,3.8-.7,8-1.5,11.9-1.7,8.7-.7,17.6-.7,26.4,0,5.3-.5,10.6.8,16.4-2.6-1.3-5.4-2.9-4.6,1.8h-2.2c.2-3.3-.7-6.5,0-9.8.5-2.7-.8-4.9-2.8-6.8-1.5-1.5-3.2-2.9.7-3.3,1.1-.1,1.9-.6,2-1.7,0-.7-.5-1-1-1.4-1.4-.8-1.6.1-2,1.2-.2.6-.7,1.1-1.4.9-.8-.2-1.2-.8-1.3-1.6,0-2,0-3.9,0-5.9,0-1.9-.2-3.8-1.9-4.9-2.8-1.7-1.7-2.9.2-4.3,2.7-1.9,3.4-5.1,1.5-6.8-.6-.5-1.1-1.4-2.1-.6-1.9,1.5-3.6.4-4.1-1.3-.5-1.8,1.2-2.7,2.8-3.1,2.9-.8,5.9-1.6,7.3-4.8,0-.2.4-.4.4-.6-1.5-7.8,5-13.9,4.4-21.6-.2-2.1.9-4.5,1.9-6.5,2.5-4.9,3.4-10.4,6.3-15.2,1.5-2.4,1-5.9,3.8-7.7.4-.3.5-.8.2-1.3-3.2-5.1,1.6-9.1,1.8-13.7,5.2-.6,3.5-6.7,6.9-8.8,1.3-.8,0-2.9,1.1-3.7,3.1-2.4,2.8-6.7,4.7-9.1,1.7-2.1,3.6-4.8,6-6.6v5.2c-.7,0-.9.4-.8,1,0,.5.3.8.8.5v2.9c-1,0-1.6.6-2.2,1.2-1.6-.2-2.4.7-2.9,2.1-1.8,4.7-3.7,9.5-5.6,14.2-.3.8-.1,1.4.5,2,.2,1.2-.2,2.1-1.4,2.6-.8-.2-1.4-.6-1.9.7-.7,1.8-.3,3.6-.4,5.4ZM279.9,346.3c-1.3.3-1.6,1.3-1.6,2.5,0,1,.3,1.7,1.5,1.6,1.7,0,1.4-1.4,1.4-2.4,0-.9,0-1.8-1.3-1.7ZM285.7,335.8c0-.9-.4-1.8-1.6-2-.7-.1-1.3.3-1.1,1,.2.9.5,1.9,1.6,2.2.7.2,1-.4,1.1-1.1ZM289.9,306.2c-1.8,2-1.8,3.4,0,5.8v-5.8Z"/>
      <path class="st1" d="M240,375.6c-.2-7.5-.1-14.9,2.9-21.9,1.4-3.2.2-6.8.3-10.1.1-4.3,2.7-6.6,5.1-9.2,1.2-1.3,3.2-2.4.1-3.8-.2,0-.3-.3-.5-.4,3.2-2.6-1.6-6.1,1.1-8.8,1.3-1.3.7-3.2.9-4.7,1.2-6.8,5-12.5,6.5-19.1,1.4-6.3,3.9-12,8-17.1,1.3-1.6.6-3.8,1.1-5.7,1.5-5.4,5.6-9.5,7.4-14.5,1.8-5,5.5-6,9.1-8,1.2-.7,2.6-1,3.6.4,1.2,1.6-.1,2.3-1.1,3.3-1.6,1.5-3.3,2.9-3.5,5.4,0,.9-.8,1.6-1.6,1.9-1.4.4-3.4.4-3.6,2-.4,2.8-1.9,5.3-1.4,8.2.4,1.9,0,3.4-1.4,4.6-2.6,2.3-3.4,5.5-4.6,8.5-.9,2.1.3,2,1.8,1.5.7-.2,1.6-.3,2,.5.5,1-.1,1.8-.9,2.1-3.2,1.2-3.4,5.3-6.5,6.6-.2,0-.3.7-.3,1,.3,4.6-2.1,8.4-4,12.2-.4.8,0,1.5,0,2.1-.5,2.3-.4,4.8-2.5,6.7-1.3,1.2-2.3,3,0,4.6.5.4.8,1.1.4,1.6-3.1,3.6-1.1,8.3-2.6,12.3-.7,1.8-.4,4.1.2,6.2,1,3.2,0,5.2-3.3,6.6-3.7,1.6-3.9,5.7-4.7,9-1.3,5.2-1,10.6-1.2,15.9h-6.6ZM246.1,339.7c0,1.2-.1,2-.1,2.8,0,1,0,2,1.1,2.5.4.2,1.1.1,1.3-.1.9-1,0-1.8-.6-2.5-.6-.7,0-2-1.6-2.7Z"/>
      <path class="st1" d="M82.3,364.6c-3-2.2-1.9-6.5-4.8-9-2.4,2.4-2.1,5.6-2,8.6.1,3,0,6.1,1.6,8.9.4.7,0,1.7.1,2.5h-5.9c0-.8-.5-1.2-1.2-1.6-2.1-1.3-3.3-2.8-2.6-5.7.5-1.9,1-4.5-2.1-5.5-1-.3-.8-1.5-.7-2.3.5-2.9-.5-6.4,3.2-8.2,1.8-.9,1.8-2.7,1.4-4.8-.5-2.5-1.8-1.6-3.1-1.5-1.4,0-1.5-1-1.5-2,0-2.1,0-4.2,0-6.2,0-1.9-.2-3.6-1.8-4.9-.5-.4-1.3-1.1-.6-1.8.6-.6,1.7-.5,1.9.1,1,2.8,4.6,2.7,5.7,5.4.5,1.2,2.7,1,2.7.2.1-2.4,4.6-3.2,2.3-6.3,2.7-6.2.7-12.8,1.7-19.1.3-1.8.6-3.6.5-5.4-.5-6.8,1.3-13.5,1.5-20.2,0-1,0-2,1.3-2.2,0,2.6.2,5.1,0,7.7-.7,8-1.8,16-2.2,24-.7,13.6.3,27.1,3,40.5.6,2.9,2.2,5.8,1.5,8.9Z"/>
      <path class="st1" d="M314.5,360.9c-1.8-.1-3.4-.4-4.3-2.4-1.1-2.4-2.7-4.6-3.9-7-.9-1.8-2-3.7-.8-5.9.4-.8.3-1.8-.3-2.5-2-2.7-1.4-5.5-.3-8.3,1.6-4.1,1.8-8.3,2-12.7.2-4.2,1.3-8.5,4.8-11.6,1.3-1.2.6-3,.6-4.6-.1-3.2,1-5,4.4-4.7v27.3c-3.4.2-5.8,1.2-4.5,5.4.2.6,0,1.5-.2,2.2-1.6,5.1-.7,6.8,4.7,8.7v16.2c-.7,0-1.5,0-2.2,0Z"/>
      <path class="st1" d="M27.9,341.7c2.8-1.5,1.2-4.5,2.4-6.6.4-.7,0-1.9,1.1-2.4.8,2,4,2.1,3.3,5.8,1.8-2.1.8-4.5,3.4-5.6-.1,3.5-.9,6.5-2.2,9.1-2.1,4.2-4.2,8.6-5.2,12.9-.8,3.8-2.5,7.8-1.7,12,.2,1-.3,1.3-1.2,1.4v-26.5Z"/>
      <path class="st1" d="M316.7,299.7c-1.2-.1-3,.5-2.8-1.7.1-1.8,1.7-1.2,2.8-1.3v2.9Z"/>
      <path class="st1" d="M316.7,366.8c-2.4-.4-1.2-2.3-1.5-3.6.5.2,1,.4,1.5.7v2.9Z"/>
      <path class="st1" d="M316.7,373.4c-.8,0-1.9.4-1.9-.8,0-1.1.9-1.5,1.9-1.4v2.2Z"/>
      <path class="st1" d="M201.7,302.1c-.3-2.5.9-4.9.3-7.5-.3-1.6,2.6-2,3-4.5.4-2.5.7-5.6,2.6-7.7,3.6-4.1,5.5-9.2,8.4-13.7.7-1.1,1.4-.6,1.9.2.9,1.3.7,2.5-.2,3.7-1.3,2.2-.9,4.8-1.4,7.1,0,.4.3.8.9.4,1,1.5-.2,2.9-.1,4.3.1,1.5-1.2,3.9,2.5,3.4,1.6-.2,2.1,2,1,3.6-.9,1.3-2,2.5-2.8,3.7-.7,1.1-1,2.9-2.5,2.8-1.8-.2-.8-2.3-1.5-3.5-2,.4-2.8,1.6-2.6,3.6.3,2.3-.6,4.1-2.3,5.5-2.9,2.1-3.4,5.3-3.3,8.4,0,1.7-.3,2.9-1.4,3.9-2.2,2-2.9,4.4-2.7,7.3.1,2.1.4,4.3-1.8,6-.8.6-.9,2.2-1.1,3.4-1,5.9-2.1,11.7-2.4,17.7-.2,4.2-2.3,8.3-3.7,12.4-.5,1.6-.5,2.7,1.3,3.5,1.7.7,1.6,2.9,2.4,4.3.1.3-.1,1-.4,1.2-.3.2-1.1,0-1.3-.2-1.2-2-3.1-1.5-4.9-1.8-1.8-.4-4.4-.6-1.5-3.6,1.4-1.4,1.4-3.7-.4-5.5-2.2-2.1-2.7-4.2-1.4-7.5,2.1-5.2,2.5-10.8,2.6-16.4.1-5,.2-10,1.5-14.9.4-1.8,1.2-2.2,2.7-2.2.9,1,2.7.3,3.3,1.7.4.8.7,1.3,1.5.6.6-.5.2-1,0-1.5-.7-1.2-1.5-2.1-3-2.2,1-2-.2-4.2.6-6.2.5-1.3,1.1-2.5,2.4-3.1,3.2-1.1,3-4.2,3.7-6.7ZM193.3,321.8c-.2.6-.3.9-.3,1.2,0,.2.2.4.2.6.2-.2.4-.5.4-.7,0-.3-.2-.6-.3-1.2Z"/>
      <path class="st1" d="M90.3,362.9c-.7-4.5-1.3-9-2.3-13.6-1-4.4-2.2-8.9-2.7-13.4-.7-5.8-.5-11.5-.5-17.2,0-9.3,1.4-18.4,2.9-27.5,1-5.8,1.9-11.7,2.8-17.5,1.5-9.8,3.2-19.6,4.6-29.4.7-4.9,3.1-9.3,3.1-14.3,0-1.6,1.1-2.3,2.3-2.3,2.8,0,5.4-.8,7.9-1.6,2.7-.9,5.2-2.9,7.5-4.7,2.9-2.3,5.1-1.7,7.1,1.1-5.4-.9-9.4,1-12.2,5.8-.6,1-1.5,2.2-3.5.8-3.6-2.3-6.1-.5-7.2,3.5-1.5,5.3-1.9,10.8-3,16.1-.2.9-.4,1.9-.5,2.9-.2,2.1,0,3.8,2.9,2.6.6-.3,1.5,0,2.2,0h.1c-.2,2.2.1,4.4-1.3,6.3-.4.6-.3,2.1.2,2.8,1.6,2.5.4,4.6-.9,6.3-1.2,1.4-1.6,2.3-1.1,4.1.7,2.2.6,4.4-.5,6.7-1.8,3.8-1,8-1.5,12-.2,1.9,0,3.9-1.8,5.3-1.9-.6-2.3,1-2.5,2.1-.3,1.3.6,2.3,2,2.5,0,1.2.5,2.5-.6,3.6-2.9,1.6-3.2,4.2-.9,6.1.6.8,1,1.8.7,2.8-1.6,5.5-.7,11.3-2.1,16.9-1.7,1.2-2.5,7.2-1.5,10.4,2.5,1.1.9,3.4,1.2,5,.8,4.5,0,9.2,1,13.7.2,1.1.4,2.6-1.6,2.5Z"/>
      <path class="st1" d="M254,208.2c-.7,3.9-.6,7.8-.8,11.6,0,2.1.8,2.9,2.9,2.2,1.4-.4,3.3-1.2,3.8.5.3,1-1.3,2.8-3.3,2.7-1.9-.2-2.6.7-2.8,2.4-.3,2.2-2.6,3.2-3.7,5-3.3,5.1-3.4,10.8-4.6,16.3-1,4.7-1.2,9.6-1.7,14.5-.4,4.3-2.3,8.1-3.6,12-.2-.2-.3-.3-.5-.5.1-.5.3-.9.3-1.4,0-.9.5-2.1-.8-2.5-1.1-.4-1.2.9-1.7,1.4-1.3,1.3-3,1.6-4.7,1.5-.2-2-.8-4,.3-6,.9-.2,1.7.3,2.3.8,2,1.9,2.7.8,3.4-1.2.6-1.6.3-3.1-.5-4.1-1-1.1-2.3.4-3.6.6-.9-2.7-.3-5.6-.5-8.4,0-.9.2-2.1-1.2-2.4-1.6-.3-1.7,1-2.1,1.9-1.2,2.8-1.3,5.9-2,8.9-.6,2.6-2,4.7-3.8,6.5-.6.6-1.4,1.4-2.2.6-1-.9.1-1.5.7-2,.7-.6,1.5-1.1,1.8-2.2.3-1.3.6-2.3-1.3-1.8-1.1.3-2.2.7-2.9-.5-.6-1.2-.8-2.8.1-3.8,3.3-3.5,4.5-8.6,8.5-11.6,2.2-1.7,4-3.9,7.2-3.5,0,1.5,0,3,.2,4.4.2,1,1,1.8,2.1,1.5,1.3-.4.4-1.3.2-2.1-.3-1.8-.8-3.9.8-5.2,1.8-1.5,2.7-3.3,3-5.5.1-.8.3-2.3,1.6-.6.4.5.8.3.9-.3.2-1.6.6-3.1.6-4.7,0-1.1-1.1-2.1-1.8-.8-1.1,1.8-2.9,1.5-4.4,2.2-3-.8-1.9-3.4-1.5-4.8,1.3-4.8,3-9.4,3.5-14.4,0-.8.5-1.4,1.4-1.5.1.3.2.7.3,1,.9,1.4-1.7,3.6.2,4.1,1.4.4.9-2.6,1.9-3.6,2.8-2.9,1.9-4.6-1.5-5.8M247.4,223.8c0,.8,0,1.5.1,2.3.6-.8,1-1.7-.2-2.3,0-3-2.5-2-4.3-2.8.9,2.5,2.4,3,4.4,2.7Z"/>
      <path class="st1" d="M166.4,300c0,3.4-1.6,6.3-2.7,9.4-1.5,4.3-1,8.7-1,13.1,0,1.6.1,3.6-1.5,4.2-4.4,1.6-3.8,5.4-4,8.7,0,1.3-.3,1.8-1.5,1.9-.6,0-1.3-.2-1.8,0-1,.6-3,8.9-2.4,9.9.3.6.9.9,1.5.4.7-.7,1.2-1.5,1.8-2.2,0,5,2,9.1,6,12.1.7.5,1.4,1.1,1,2.1-.3.6-.9,1.2-1.4,1-4-1.7-8.4,0-12.4-1.3-1.9-.6-3.9-4.8-2.6-6,2.5-2.2,1.6-4.9,1.9-7.4,0-.4.4-.8.6-1.3,3-2.6,5-14.3,2.8-16.8-.4-.5-1.1,0-1.5.6-2.1-1.7-1.2-3.6-.4-5.5,2.5-6,5.1-11.9,7.5-17.9,1-2.3,0-5.5,3.2-6.8.2,0-.3-1.4-.2-2,.5-2.1.5-4.6,3.7-4.4-.6,1.8.3,2.3,1.8,1.7,1.2-.5,1.1-2,1.3-3.1.2-1.3-.6-1.6-1.7-1.7-1.1-2.7.3-6.2,2.9-7.4,2.2-.7,3.9.6,5.7,1.3-.5,4.6-1.3,9-4.5,12.7-2.9.6-3.3,2.3-2.1,4.7ZM156,333.9c.7-4.1.8-7.6,2-10.9-3.3,2.8-4.1,6.2-2,10.9ZM160.1,315.4c1.3-2.3,1.8-4,1.9-5.9,0-1.8-1.3-.9-2-1.1-.9-.2-1.1.7-.6,1.1,1.8,1.5.7,3.5.8,5.9Z"/>
      <path class="st1" d="M234.1,313.1c0,3.9-.4,7.6-1.8,11.3-2.2,0-2.5,1.9-2.8,3.2-.7,3.2-.9,6.5-1.3,9.7-1.9.7-2.3-1.4-3.6-2.1-.4,1.7-2.3,3.4,0,4.6,2.1,1.1,3-.7,3.5-2.5.4-.6.8-1.2,1.1-1.8.2,4.4-1.4,8.2-4.2,11.5-1.3,1.4-1.7,4.7-.7,6.5-.6,2.5-2.6,1.7-3.8,1-1.4-.8-2.9-2.7-1.8-4.3,2.7-4.2,1.9-9,3.3-13.5,1.9-6.2,3-12.7,3.2-19.3,0-2.4,1.1-5.2,2.6-7.1,2.1-2.6,1.9-5.3,1.6-8-.5-3.4-.2-6.5.6-9.9,1-4.3,1.4-8.9,1.8-13.3.4,0,.8.1,1.3.2-1.3-3,1.5-2.9,2.9-3.6,1-.5,2.3-.4,3.5-.6.2.2.3.3.5.5,1.1,5.6-1.2,10.7-2,16.1-3.9,1.8-.8,5.8-2.6,8.4-.7,1,0,2.1,1.5,2.1,0,2.1.3,4.4-2,5.7-.6-1.1.2-2.1.4-3.1.2-1-.3-1.6-1.1-2-.8-.3-1.4,0-1.9.7-1.5,1.9-.4,8.2,1.7,9.7ZM235.6,279.3c.3.9-.2,2.4,1.1,2.4,1.7,0,1.3-2.3,2.5-3.1-.6-.7-1.2-2-1.9-2-1.6,0-1.5,1.6-1.7,2.7Z"/>
      <path class="st1" d="M167.9,280c-.8-3.3,1.1-5.6,2.7-8.3,4.2-7.2,9.2-13.8,14.1-20.5,1.7-2.3,3.4-4.7,6.2-6,2.1-1,2.5-3.5,3.9-5.2.5-.6,1.1-1.6,2-1,.4.3.6,1.5.3,2-1.8,3.6-.7,8.8-5.8,10.7-.2,0-.5.3-.5.5-.4,5.3-6.1,8.6-5,14.5.4,2.2,0,4.5-2.4,6-3,1.8-4.4,5.5-7.8,6.7.1-1.6-.2-2.4-1.9-1.3-1.7,1.1-3.7,1.6-5.7,1.8Z"/>
      <path class="st1" d="M88.5,222.1c2.4.2,2.1,2,1.9,3.6-1,7.8-2.8,15.3-4.4,23-1.7,8.1-3.4,16.2-3.9,24.5-.2,3.1-1.4,6-1.8,9-1.8-2,.2-4.1,0-6.2-.9-6.8,1.2-13.3,2.2-19.9.7-4.4,1.1-8.9,1.7-13.3.3-2.3.5-4.7,1.5-6.7,2.3-4.4,2.2-9.2,2.8-13.9Z"/>
      <path class="st1" d="M50,251.1c-.2-.6-.8-1.5-.6-1.6,1.7-1.8.9-4.6,1.8-6,2.5-3.7,2.7-9.1,8.3-10.9-2-1.7-4.3-2.9-1-5.2,1.1-.8.6-3.8,1.9-5.3.6-.8,1.3-2.1,2.6-1.5,1.3.5,1.1,1.8,1,2.9-.5,3.9-2.3,7.4-3.9,11-2,4.6-5.1,8.7-5.9,13.9-.2,1.4-.7,3.2-2.6,3.6-.5-.3-1.1-.5-1.6-.8Z"/>
      <path class="st1" d="M46.8,264.1c.6,1.7-.2,3.4-.6,5-1,4.7-3.4,9-3.2,14,0,.9-.1,2.3-1.5,2.6-.7-.3-1.3-.3-2,0-2.4-2.3-2.7-4.9-1.4-7.9.3-.6,0-1.5,0-2.2-.6-3.9,2.4-8.8,6.4-10.6.7-.3,1.5-.7,2.2-1Z"/>
      <path class="st1" d="M50.1,323.3c-2,2.8-2,6.5-3.2,9.9-.4,1.1-1.3,1.2-2.1.9-1-.4-.3-1.2-.1-1.9.3-1.2,2.5-2.2.9-3.4-1.7-1.3-2.1.7-2.8,1.7-.3.4-.8.7-1.2.3-.2-.2-.5-.7-.4-.9,1.5-2.8-.9-5.6-.3-8.4.3-1.1.1-2.2.4-3.2.5-1.4,1.1-2.7,2.8-3.1,1.8-.4,2.2,1.2,3.1,2.1,1.4,1.5,2.4,3.4,2.8,5.9Z"/>
      <path class="st1" d="M263.6,242.8c2.3-.6,3.9.3,5.5,1.5,1.2.9.8,1.6,0,2.3-1.2,1.1-6.7,1.1-8,0-.9-.8-1.4-1.8-1-2.9.7-2.1,2.3-1.1,3.5-.9Z"/>
      <path class="st1" d="M102.2,237.6c0-2.4,2.6-3.3,2.9-5.4,0-.4,1.1-.2,1.6.2,1.6,1.2,2,2.8,1.1,4.5-.5,1-1.1,2.3-2.4,2.6-1.5.3.8,3.5-1.6,2.6-1.7-.6-.3-3.2-1.5-4.4Z"/>
      <path class="st1" d="M218.6,244.6c.4-1.8,1.4-3.8,3.6-4.4,1.5-.4,2.4,1.1,2,2.3-.7,2.1-1.3,4.7-4.1,4.9-1.6.1-1.5-1.2-1.5-2.7Z"/>
      <path class="st1" d="M101.5,254c-.4-3.1-1.5-6.2-.2-9.3.4-.9.7-2,1.9-1.6,1.3.5,1.4,1.5.5,2.6-.9,1.2-1.2,2.9-.5,3.8,1.9,2.6.3,3.6-1.6,4.6,0,0-.1,0-.1,0Z"/>
      <path class="st1" d="M152.1,365.2c-.8.8.3,2.9-1.6,2.7-2.1-.3-2.2-2.3-2.5-3.9-.2-1.5,1-1.8,2.2-1.6,1.7.2,2,1.4,1.9,2.9Z"/>
      <path class="st1" d="M47.1,257c.7.3,1.4.6,2.1,1-.4,1.3-.8,2.6-1.2,3.9-3-2.9-2,1.5-3.3,1.8-1.2-2.9-.1-5,2.3-6.6Z"/>
      <path class="st1" d="M37.2,290.9c.4,1.9,1.2,3.8.9,5.8-1-.5-1.9.1-2.8.1-.2-2.3-.8-4.6,1.9-6Z"/>
      <path class="st1" d="M149.2,331.4c.2,2.5.4,5.1-.9,7.4-2-2.8-.7-5.1.9-7.4Z"/>
      <path class="st1" d="M238.7,240.2c-.3,1.2-.3,2.6-1.3,3.6-1.9-2.1-1.3-3.2,1.3-3.6Z"/>
      <path class="st1" d="M239.7,237c.7,1.3-.3,2.2-.9,3.1,0-1.2-.6-2.5.9-3.1Z"/>
      <path class="st1" d="M122.9,222.4c1,0,1.7.6,2.2,1.4-1.1,0-2.1,0-2.2-1.4Z"/>
      <path class="st1" d="M221.1,273.8c.2-.1.3-.3.5-.4.1.2.3.5.4.7-.2,0-.4.3-.6.2-.1,0-.2-.3-.3-.5Z"/>
      <path class="st1" d="M89.3,365.1c-.1-.9.1-1.7.9-2.2.2.9.5,1.9-.9,2.2Z"/>
      <path class="st1" d="M234.7,310.6c-.1-.3,0-.5.2-.6.1.1.2.3.4.4-.2,0-.4.1-.6.2Z"/>
      <path class="st1" d="M237.1,245.2c.2.1.4.2.6.3-.2.1-.4.2-.6.3,0-.2,0-.4,0-.7Z"/>
      <path class="st2" d="M231.6,208.5c-2.6,7.3-8.1,12.7-13,18.3-6.4,7.4-19,9.4-28.7,5.4-.6-1.1-1.4-1.8-2.7-1.8,0,0,0,0,0,0-2.5-3.4-5.2-4.1-8.7-1.3-2.9,2.2-5.9,4.7-9.2,5.8-3,1-6.3,2.1-9.7,2-1.6,0-2.9.9-2.9,2.8.1,6.2-2.9,11.7-3.8,17.7-1.7,12.1-3.7,24.2-5.6,36.3-1.1,7.2-2.2,14.4-3.4,21.6-1.9,11.2-3.6,22.5-3.6,33.9,0,7-.3,14.1.6,21.2.7,5.6,2.1,11.2,3.3,16.6,1.3,5.6,2,11.1,2.9,16.7,0,0,0,0,0,0-1,.6-1.3,1.5-1.2,2.7-.7,1.4-1.9,2.2-3.3,2.7-3.2,1.1-5.5.9-5.3-3.3.9-3.9-1.1-7.4-1.8-11-3.4-16.5-4.6-33.2-3.7-49.9.5-9.9,1.9-19.7,2.8-29.6.3-3.1,0-6.3,0-9.5.1-.6.2-1.1.4-1.7.5-3.7,2-7.3,2.2-11.1.6-10.2,2.8-20.2,4.8-30.2,1.9-9.4,4.2-18.8,5.4-28.3.2-1.9.7-4.1-2.4-4.4,0,0,0,0,0,0-.9-1.7-1.5-3.7-2.8-5.1M192.8,207c-2.5-.2-4.8.5-4.8,3.3,0,2.7.9,5.8,3.4,6.9,9.4,4.1,21.6,4.6,29.5-5.8M177.7,211.5c-2.5,1.2-4.9,1.1-7,1.2-7.1.4-7.4.4-7.8,6.7,0,1.6.1,2.8,1.9,3.6,1.7.7,3,.5,4-.9,1.3-1.9,3.1-3.1,5.1-4.2,2.1-1.2,3.7-3.1,3.7-6.4Z"/>
    </g>
    <polyline class="st5" points="110 133.5 103.2 125.1 94.8 117.7 89.7 108 86.4 97.6 81.3 88 77 77.9 76.4 62.9 85.4 57.6 94.4 57.1 103.7 58.5 112.2 63.5 120.9 69.1 127.8 76.8 135.9 83.3 140.5 90.2 140.3 78.6 137.6 65.9 141.2 53.5 146.7 41.3 157.9 39.1 168.6 37.1 179.1 40.6 187.7 47.5 194.5 56 200.7 65.2 203.9 75.8 207.6 85 214.4 80.2 222.7 75.1 232.6 76 244.6 74 257 74.3 266.4 82.5 273.3 90.8 278.4 100.8 277.4 111.3 279.1 121 284.6 130.2 281.9 140.2 268.7 145.5 258.9 146.1 248.9 145.5 239.3 143.7 250 147.3 261.8 149.4 270.8 157.4 279.1 165.2 286.9 173.3 291.1 184.7 294 197.1 288.8 208.7 282.2 218.8 273.5 227.6 261.8 231.7 255.5 233.8 248.9 226.2 245.9 219.1 242.4 230.1 240.5 242.1 240.4 254.8 233.4 263.8 227.5 274 215.4 270.7 204.5 266.8 194.3 259.1 192.3 246.6 192 234.4 183.9 245 176.4 255.5 163.5 258.6 153.6 252.7 143.6 242.8 142.9 228.7 145.7 215 157.7 207.4 146.6 212.2 134.8 213.4 123.4 211.6 114.4 207.6 106.9 201.1 96 197.2 84 198.4 74.8 190.4 65.8 182.6 62.3 171.1 63.2 159.4 65.7 148.2 73.1 138.9 83.8 134.2 95.1 133.7 105.8 135.7 116.4 140.6 107.8 129.2 102.5 117.3"/>
    <path class="st4" d="M171.2,128.6c-1.9,3.2-1.5,10.2,0,13.4.7,1.7,1.9,3.1,3.1,4.5s1.3,1.4,2,2c1.8,1.8,3.7,3.7,5.5,5.5,1.1,1.1,2.3,2.2,3.7,2.7,2.3.7,4.9-.5,6.4-2.4s2.1-4.3,2.6-6.7"/>
    <g>
      <path class="st3" d="M243.1,224.8c-.3,2-1.3,3.8-1.1,5.8,0,.6-.3,1.3-.6,1.9-1.4,4.1-2.8,8.2-3.4,12.5-.4,2.7-.8,5.5-1.6,8.1-1.4,4.3-2.5,8.7-4.2,12.8-1.6,4-4.5,6.9-9,8.4-2.9.9-5.7,1.5-8.2-.1-2.2-1.4-4.6-2.3-6.5-4.1-2.5-2.3-5.3-4.4-7.6-6.9-2.2-2.3-4.4-4.7-5.8-7.5-1.8-3.4-3.1-6.9-2.6-10.8,0-.6.3-1.3.6-2.3-.9,1.2-1.6,2.1-2.3,3-1.9,2.5-4.8,3.9-6.8,6.3-.7.9-1.6,1.8-2.5,2.5-1.5,1.2-2.8,2.4-4.7,3.2-1.5.6-2.9,1.6-4.4,2.4-2.9,1.6-5.9,1.9-9,.3-4.6-2.4-8.9-5.1-12.3-9-2.4-2.7-4.6-5.5-6.4-8.6-.5-.9-1.1-1.6-1.7-2.5-1.1-1.7-2.1-3.5-3.2-5.2-.8-1.2-1.8-2.2-2.3-3.6-.3-.8-.2-1.2.1-1.8,1.3-2.6,3-5.1,5.1-7.2,2.3-2.4,4.9-4.5,7.8-6.2.6-.4.7-.5.9-1.7-2.5,1.2-5.2,1.4-7.6,2.6-1.4.6-3,1.2-4.8.8-2.3-.5-4.8-.4-7.2-.6-2-.1-4-.7-5.8-1.7-1.1-.6-2.4-1-3.5-1.7-.4-.2-.7-.6-1-.9-2-1.5-4.2-2.7-6.4-4-2.5-1.4-5.2-2.5-7.3-4.5-.4-.4-1-.5-1.5-.7-2.9-1.4-5-3.6-7.2-5.7-1.1-1-2.3-1.7-3.8-1.7-4.1,0-7.9-1.1-11.7-2.2-1.1-.3-2.1-1.1-3.1-1.7-1.6-.8-3.2-1.5-4.7-2.5-3-2.1-6.1-3.9-8.6-6.7-1.5-1.7-3-3.4-4.6-5.1-1.6-1.8-1.6-4-1.8-6.2,0-1.1-.2-2.3-.4-3.4-.2-2.5.9-4.8.9-7.2.1-3,1.3-5.8,1.9-8.7.5-2.2,1.8-4.2,2.4-6.4,1.6-5.5,5.8-8.9,10.3-11.9,4.2-2.7,9.1-3.2,14-2.9,5.4.3,10.7,1.4,15.9,2.6,1.4.3,2.8.4,4.5.3-2.8-2.7-5.2-5.3-7.5-8.2-2.4-3-4.6-6-6.7-9.2-1.9-2.9-4.2-5.5-5.9-8.4-1.3-2.2-2.4-4.6-3.7-6.7-1.8-2.9-2.8-6.1-4.1-9.2-1.1-2.6-2.3-5.3-2.9-8.1-.4-1.8-1.2-3.5-1.4-5.4-.3-2.5-.7-5-.6-7.6,0-4.3,1.3-8.1,4.3-11.3,1.4-1.5,3.3-2.4,5.3-2.9,4.3-1.1,8.6-2.1,13.1-1.4,1.5.2,2.9.6,4.2,1.1,3.3,1.2,6.6,2.5,9.5,4.4,4.1,2.5,8.6,4.6,12.1,8,1.3,1.2,2.9,2.1,4,3.5,1.8,2.2,3.6,4.4,5,6.8.2.3.2.9.9,1,.1-3.3-.2-6.5-.1-9.7,0-3.8,0-7.6,1-11.3.5-2,.8-4,1.2-6,.4-2.1,1.1-4.1,1.5-6.2.6-3.1,1.8-6.1,3.7-8.7,1.6-2.3,3.5-4.3,6.5-5.1,2.1-.5,4.1-1.4,6.3-1.9,1-.2,2,0,2.9-.1,4.6-.5,8.8.4,12.9,2.4,4.8,2.4,8.9,5.7,13.1,8.9,3.6,2.8,6,6.5,8.9,9.9,2.9,3.4,4.7,7.4,6.6,11.2,1.8,3.7,3.4,7.5,4.9,11.4.9,2.3,2.1,4.4,2.9,6.7.5,1.4,1.1,2.8,1.4,4.3,1.8-1.3,3.8-2.1,5.6-3.2,1.9-1.1,4-1.3,5.9-2.2,2.1-1,4.3-2,6.5-3,.6-.3,1.2-.8,1.9-.9,3.1-.6,5.7-2.6,8.7-3.3,1.4-.3,2.8-1,4.3-.9.8,0,1.9,0,2.5-.7.4-.6.7,0,1,0,1.8,0,3.5-.2,5.3-.2,1.8,0,3.7.3,5.5.3,2.7,0,5.4.4,7.9,1.3,2.3.8,3.6,2.7,4.9,4.7,2,3,2.4,6.4,3.6,9.7.8,2.1,1,4.5,1.5,6.7,1.1,4.8,2.2,9.7,3,14.6.8,4.7,1.5,9.4,1.9,14.1.3,3.2.7,6.3.2,9.5-.5,3.3-1.6,6.2-4,8.8-1.7,1.9-3.5,3.7-5.8,4.7-1.8.8-3.8,1.4-5.7,2.1-2,.7-4,1.2-6.1,1.6-1,.2-1.9,1.1-3.1.9-.2,0-.5.2-.5.6,0,.6.5.6.8.7,2.5.9,5.2,1.5,7.7,2.4,5.4,1.9,10.7,4.1,15.1,7.6,3.9,3.1,6.7,6.9,7.8,11.9.5,2.1,1.5,4,2,6.1.4,1.6,1.1,3.2,1,4.9-.1,1.8.8,3.5.7,5.3-.2,3-.2,6-.5,9-.8,6.6-4,12.3-7.3,18-1.1,1.9-3.3,2.8-5.2,3.8-2.5,1.3-5.3,2-8,2.6-1.2.3-2.4.4-3.5.7-4.1,1.2-7.9,3.3-12.2,4-2.3.4-4.8.7-6.6-.6-1.4-.9-2.8-2.1-3.7-3.7ZM100.8,196.6c2.1,1.6,4,3.3,6.1,4.6,2.7,1.5,5.3,3.3,8.1,4.8,3.4,1.9,6.6,4.1,9.9,6.2,1.1.8,2.4,1.5,3.8,1.9,3.6,1,7.3.9,10.9,1.5,1.6.3,3.3.5,4.8-.5.3-.2.4-.8.9-.7,1.6.2,2.9-.5,4.3-.8,4.1-1,7.9-2.7,11.6-4.5.5-.2.9-1,1.6-.4.6.6-.2,1.1-.2,1.6,0,.5-.6.8-1,.8-1.6.2-2.7,1.3-4,2.1-2.1,1.3-3.9,3.2-6.1,4.5-3.3,1.9-6.2,4.3-8.7,7.1-1.3,1.4-2,3.2-3.1,4.8-.6,1-.5,1.7.1,2.6,1.4,2,2.7,4,3.8,6.2,2.6,4.8,5.8,9.2,9.7,13,3.2,3.1,7,5.8,11.4,7.5,2.7,1,5.2.7,7.7-.6,1.6-.8,3.1-1.9,4.7-2.7,2.3-1.1,3.8-3.1,5.7-4.7,1.5-1.3,2.3-3.3,4.4-4.1.4-.2,1.3-.5.8-1.4-.2-.3,0-.3.4-.4,1.4-.3,2.2-1.3,2.8-2.4.2-.4.3-.9.7-1.1,2-1.3,2.6-3.4,3.6-5.3,1.8-3.5,4.2-6.5,7-9.2.2-.2.5-.8,1-.4.4.3.6.7.4,1.1-.2.4-.2.9-.5,1.2-1.9,1.5-2.8,3.7-4.4,5.4-2.8,2.9-3.9,6.5-4.8,10.1-1.3,5.6,1.5,10.1,4.7,14.1,3.8,4.6,8.4,8.7,13.5,12.1,1.6,1.1,3.5,2,5.5,2.3,1.3.2,2.5-.4,3.7-.6,3.5-.5,6.3-2,8-5,1.3-2.2,2-4.6,2.5-7.1.5-2.3,1.5-4.5,1.9-6.8.5-2.5,1.3-4.9,1.6-7.4.4-2.7.8-5.3,1.4-7.9.5-2.1,1.2-4.3,1.9-6.4.9-2.6.7-5.4,1.4-8.1.3-1.2.3-2.8-.4-4.1-1.7-3.1-2.3-6.6-3-10-.1-.6-.1-1.2.1-1.9.4-1,2-2.1,2.9-2,1.2.2,1.6,1,1.6,2,0,1.9.4,3.7.7,5.6,0,.2,0,.4,0,.6,0,3.1-.4,6.3,1.7,9.1,1.2,1.6,2.7,3.1,4.4,4.1,1.1.6,2.7,1,4.3.3,2-.9,4.4-1,6.4-2,2.6-1.3,5.3-2.1,8.1-2.6.7-.1,1.5,0,2.2-.2,2.4-.5,4.6-1.4,6.8-2.5,1-.5,1.9-1.2,2.9-1.8,1.2-.7,1.9-1.9,2.4-3.2,1-2.2,2-4.4,3-6.6,1.6-3.6,2.6-7.2,3-11,.2-2.2.2-4.5.3-6.7,0-2.7-.7-5.2-1.2-7.8-.3-1.4-.4-3-1.1-4.2-.9-1.5-1.2-3.2-1.7-4.7-1.1-3-2.7-5.6-4.6-8.1-1.9-2.5-4.8-3.7-7.4-5.2-3.8-2.3-8.2-3.6-12.5-4.9-1.8-.6-3.6-1.1-5.5-1.5-3-.8-5.8-2.1-9-2.6-1.4-.2-2.4-1-3.6-1.5-.6-.2-.7-.8-.5-1.4.2-.6.8-.6,1.3-.5.8.2,1.6.3,2.3.6,4.9,1.5,9.9,1,14.8-.1,3.1-.7,6-1.9,9-3.1,3.6-1.5,6.1-3.8,7.8-7.2,1.9-3.7,2.3-7.4,2.1-11.5-.4-6.3-1.3-12.5-2.1-18.8-.8-5.6-2.7-11-3.8-16.6-.8-4-1.8-8-3.7-11.6-1.6-3-3.9-5.1-7.5-5.3-4-.2-7.9-1.1-12-.5-4.1.6-8.2,1.2-12,2.6-.7.3-1.2.8-1.9.9-2.5.6-4.7,1.9-7.1,2.9-1.9.9-3.8,2-5.8,2.7-2.2.8-4.4,1.7-6.5,2.5-3.4,1.3-6.1,3.8-8.7,6.1-.9.8-2.2,1-3,2-.2.3-1.5-.2-2-.8-.5-.5,0-.9.5-1.3.7-.4,1.4-.8,2-1.4.9-.9,2.5-1.2,2.7-2.6.2-2.1-.1-4.2-1-6.2-1.5-3.4-3.1-6.9-4.5-10.4-2.3-5.4-4.6-10.7-7.9-15.6-1.8-2.7-3.7-5.3-5.8-7.8-1.9-2.4-4.4-4.1-6.7-6.1-1.9-1.6-4.1-3-6.2-4.3-2.2-1.4-4.4-2.8-7.1-3.4-2.4-.5-4.8-.5-7.2-.4-3.1.1-6,.6-8.8,1.6-4.9,1.8-7.5,5.7-9,10.2-.9,2.7-1.6,5.5-2.3,8.3-.8,3.3-1.4,6.5-1.9,9.8-.4,2.6-.6,5.2-.7,7.9,0,2.4.3,4.7.5,7,.3,2.9,0,5.9,1.8,8.5.4.7.4,1.6-.6,2-.9.3-2.1.4-2.4-.6-.8-2.8-2.7-5.1-4.2-7.6-1.8-3.1-4-5.8-6.6-8.3-3.4-3.4-7.5-5.8-11.5-8.3-2.2-1.4-4.7-2.4-7-3.7-2.3-1.2-4.9-2.1-7.6-2.6-4.1-.8-8.2-.2-12.1,1.6-1.7.8-3.4,1.3-4.6,2.8-1.8,2.4-2.7,4.9-3.3,7.7-.7,3.5-.1,6.8.5,10.1.6,3.3,1.8,6.5,2.7,9.7.9,3.2,2.3,6.2,4,9.2,1.9,3.3,3.7,6.7,5.7,9.9,2.9,4.6,6,9,9,13.5.5.7,1.2,1.1,1.7,1.7,1.3,1.7,2,3.8,4,5.1,1.2.8,2,2,3,3,1,1,1.8,2.5,3.7,2.3.5,0,1.2.2,1,.8-.3,1,.4,1.2,1,1.5,1.3.7,2.6,1.2,4.1,1.1.3,0,.6,0,.7.4,0,.2-.3.4-.5.5-1.8.9-3.6.6-5-.3-1.9-1.3-3.7-2.1-6.2-2.1-2.8,0-5.5-.3-8.2-1.2-3.1-1.1-6.6-1.1-9.9-1.4-4.4-.5-8.7-.3-12.9,1.4-4.2,1.7-7.4,4.6-9.8,8.2-1.8,2.7-2.7,5.8-3.7,8.9-2,6.5-3.7,13-3,19.7.2,1.7.3,3.6,1.6,5,2.4,2.7,4.8,5.5,7.5,7.9,1.6,1.5,3.8,2.2,5.6,3.5.8.6,1.4,1.5,2.5,1.8,2.6.8,5,2,7.6,2.9,2.2.7,4.4,1.1,6.7,1.4.3,0,.8.2.8-.2,0-1.2.9-1.9,1.3-2.9,1-2.3,3.1-3.7,5-5.1,1.1-.9,2.7-1.5,4-2.3,3.9-2.5,7.9-2.7,12.2-1.8,2.2.5,3.9,1.9,6.1,2.2.5,0,1.1.2,1.1.8,0,.6-.4.9-.8,1.1-2.3,1.4-4.6,3-7,4.1-2.6,1.2-5,2.7-7.7,3.7-2.7,1-5.6,1.4-8.5,2.5ZM121.2,185.7c-.6-.3-1-.4-1.3-.6-3.8-1.7-7.8-2.1-11.9-.7-.9.3-1.5,1-2.3,1.4-3.1,1.6-5.8,3.8-7.9,6.5-.3.4-.6,1-.1,1.5.3.3.5.7,1.2.7,3.4,0,6.3-1.7,9.5-2.3,1.8-.4,3.5-1.3,5.2-2.2,2.6-1.3,5.1-2.8,7.7-4.3Z"/>
      <path class="st3" d="M177.9,131.3c-.1.9.5,1.4,1.1,2,1.8,2,3.2,4.3,4,6.8.4,1.1,1.4,2,1.3,3.3,0,0,.3,0,.2.4-.3.9.2,1.4,1.2,1.5.3,0,.3.2.4.3.4.8.6,1.7,1.3,2.4.5.5.2.9-.6.9-.5,0-.9-.3-1.6-.3,0,.8.3,1.6.1,2.4-.2.8,0,1.7-1.3,1.6-.3,0-.5.2-.5.5,0,.3.2.4.5.4,0,0,0,0,.1,0-.4.4-.4.7.2.9.6.3.9,0,1.3-.4.5-.6,1-1,1.8-1.3,1.4-.6,1.4-2,2-3,1.1-1.9,1-2,2-2.5.4,1-.3,2-.7,2.4-1.4,1.1-1.2,2.9-2.3,4.1-.6.6-1.2,1.1-1.9,1.6,0,0-.1,0-.1,0-1,1.2-1.9,2.1-3.7,1-1.1-.7-2.8-.4-3.7-1.8-.4-.5-1.7-.8-1.9-1.4-1-2.4-3.5-3.7-4.2-6-1.1-3.3-3-6.6-1.7-10.4,0-.2.1-.5,0-.6-1.1-1.4-1-3.1-1.2-4.7-.2-1.4-.2-2.6,1-3.6.3-.3,2.8,0,3,.3.4.7-.1.8-.6.8-1.6,0-1.8,1.2-1.5,2,.3.9.2,1.8,0,2.6.6.3,1-1,1.4-.2.3.5.1,1.1-.7,1.4-.3.1-.2.4-.1.6.3,1.8,1.1,3.5,1.7,5.2,0,.2.2.8.7.5.4-.2.4-.5.3-.9-.1-.7-.3-1.3-.7-2-.9-1.8-.5-3.8-1-5.7-.1-.5.8-1.6,1.4-1.9.7-.3,1.8,0,2.4.7.2.3.4.4.6,0h0ZM181.9,155.4c-.7-1.5-1-2.9-2.3-3.4-1.3-.5-1.5-1.7-2-2.6-.6-1-.9-2.4-1.7-3.2-1.6-1.5-2-3.5-3.2-5.2-.5-.7,0-1.6-1-2.3-.6,2.1.5,3.8,1.2,5.3,2.1,4.3,3.7,9,9.1,11.4ZM183.7,150.2c.3-4.9-2.3-9-4.6-13.2.3.7-1.1.9-.6,1.3,1,.9.9,1.9.9,3,0,.4,0,.7.2,1.1,1.1,1.8,2,3.6,2,5.8,0,.3.2,1.4.3,1.3,1.4-.4.6.9,1.2,1.2.4-.4.2-1,.4-1.4.4.2,0,.8.4.9ZM176.8,136.9c1.2-1,1.2-1.1-.6-4.6.2,1.7.9,3,.6,4.6Z"/>
      <path class="st3" d="M177.9,131.3c0-.8.4-.9,1.1-.5,1.7,1,3.5,2,5.2,2.9,2,1.1,3.5,2.6,5.1,4.1,1.2,1.1,1.9,2.8,2.4,4.5.4,1.4,0,2.7-.2,4-.6,0-.5-.4-.5-.7.6-3.9-1-6.7-4.3-8.9-1.2-.8-2.5-1.7-3.6-2.7-1.5-1.2-3.1-2.4-5.2-2.8,0,0,0,0,0,0Z"/>
    </g>
  </g>
</svg>